<?xml version="1.0" encoding="UTF-8"?>
<svg version="1.1" xmlns="http://www.w3.org/2000/svg" width="402" height="397">
<path d="M0 0 C0.7798464 -0.00367669 1.55969281 -0.00735338 2.36317092 -0.01114148 C4.96736589 -0.02212374 7.57152087 -0.02601296 10.17573547 -0.02983093 C12.04724757 -0.03610007 13.91875843 -0.04274727 15.79026794 -0.04974365 C21.93217611 -0.07074578 28.07408439 -0.0811475 34.21601868 -0.09111023 C36.33729884 -0.09516025 38.45857888 -0.09927724 40.57985878 -0.10346031 C50.55540085 -0.12250933 60.53093556 -0.13673684 70.50649232 -0.14507228 C81.98226234 -0.15482172 93.45783831 -0.18108239 104.93354005 -0.22157317 C113.82645498 -0.25186192 122.71931473 -0.26655348 131.61228019 -0.26985329 C136.91194362 -0.27219067 142.2113997 -0.28097757 147.51100731 -0.30631447 C152.50894985 -0.32982222 157.5065519 -0.3337385 162.50453568 -0.32355309 C164.32359903 -0.32306296 166.14268046 -0.32922573 167.9616909 -0.34310913 C197.96752256 -0.55901988 225.0231393 8.94877322 248.07929993 28.14717102 C248.95199524 28.85486633 249.82469055 29.56256165 250.72383118 30.29170227 C271.05177962 47.54644906 286.26163679 74.978682 289.3647809 101.59588242 C289.79921578 107.51412824 289.76177459 113.43147246 289.72627258 119.36201477 C289.73306993 121.30441602 289.74198479 123.24681082 289.75282288 125.18919373 C289.77537131 130.40421875 289.76688229 135.6187422 289.75092745 140.83377457 C289.73814022 146.32879597 289.75004376 151.82377853 289.75785828 157.31880188 C289.76691788 166.54129125 289.75506431 175.76357948 289.7311554 184.98603821 C289.7039514 195.60113238 289.71276818 206.21574612 289.74028742 216.83082867 C289.76308318 225.99580549 289.7661277 235.1606389 289.75309408 244.32563496 C289.74535681 249.77712168 289.74409832 255.22838367 289.76077652 260.67985535 C289.77537547 265.80859897 289.76492218 270.93673196 289.73630524 276.06541061 C289.72977589 277.9312273 289.73144935 279.79709671 289.74261856 281.66289139 C289.89763001 310.22227541 279.53328542 335.44732642 261.07929993 357.14717102 C260.4889093 357.88322571 259.89851868 358.6192804 259.29023743 359.37763977 C242.51295302 379.54607741 214.70339513 394.43158891 188.59576988 397.432652 C182.5362898 397.86929722 176.47706977 397.82955496 170.4054718 397.79414368 C168.41381029 397.8009403 166.42215508 397.80985475 164.43051147 397.82069397 C159.08119744 397.84325101 153.73237216 397.83474967 148.38305092 397.81879854 C142.7478937 397.80601591 137.11277446 397.81791361 131.47761536 397.82572937 C122.01973567 397.83479028 112.56205209 397.82293192 103.10420227 397.79902649 C92.21645434 397.77182226 81.3291748 397.78063894 70.4414382 397.80815852 C61.04291869 397.8309505 51.64453903 397.83400061 42.24600077 397.82096517 C36.65478766 397.81322586 31.06379368 397.81197523 25.47259521 397.82864761 C20.21253298 397.84324095 14.95306638 397.83280307 9.69306755 397.80417633 C7.7788739 397.79764407 5.86462886 397.79932566 3.95045662 397.81048965 C-24.79540037 397.96250585 -50.05704386 387.74046521 -71.92070007 369.14717102 C-72.65675476 368.5567804 -73.39280945 367.96638977 -74.15116882 367.35810852 C-95.93142782 349.24001697 -108.95229111 320.80174054 -112.92070007 293.14717102 C-113.01655266 290.56107185 -113.06855104 288.00188605 -113.06787109 285.41629028 C-113.07154778 284.65686164 -113.07522447 283.897433 -113.07901257 283.11499137 C-113.08999164 280.57989389 -113.0938835 278.04483748 -113.09770203 275.50971985 C-113.10397142 273.68746818 -113.11061864 271.86521777 -113.11761475 270.04296875 C-113.13861433 264.0633889 -113.14901855 258.08380894 -113.15898132 252.10420227 C-113.16303148 250.03864212 -113.16714848 247.97308209 -113.17133141 245.9075222 C-113.19038009 236.19360883 -113.20460751 226.479703 -113.21294338 216.76577455 C-113.22269182 205.59280485 -113.24895 194.42003453 -113.28944427 183.24713498 C-113.31973892 174.58776373 -113.33442513 165.92844915 -113.33772439 157.26902598 C-113.34006115 152.10908853 -113.34883982 146.9493641 -113.37418556 141.78948402 C-113.3977037 136.92286295 -113.40160559 132.05659153 -113.39142418 127.18992805 C-113.3909343 125.4192411 -113.39708966 123.64853552 -113.41098022 121.87790298 C-113.63161018 92.04552333 -103.99240287 65.05117831 -84.92070007 42.14717102 C-83.8591571 40.83812805 -83.8591571 40.83812805 -82.77616882 39.50263977 C-63.16222611 16.39530467 -30.51264296 -0.00780745 0 0 Z " fill="#BC5505" transform="translate(112.92070007324219,-0.1471710205078125)"/>
<path d="M0 0 C3.93599012 2.34645565 5.91672189 4.61420767 7.25 8.9375 C8.29430084 15.87079628 7.02420096 21.43869971 4.4375 27.8515625 C3.09972743 31.32801096 2.07095156 34.85623157 1.0625 38.4375 C-1.57163516 47.67047314 -4.64266557 56.75297647 -7.71557617 65.84765625 C-8.28175659 67.52601563 -8.28175659 67.52601563 -8.859375 69.23828125 C-9.19936523 70.24028564 -9.53935547 71.24229004 -9.88964844 72.2746582 C-10.60479625 74.48808534 -11.20054076 76.67974562 -11.75 78.9375 C-10.85099472 78.93305878 -9.95198944 78.92861755 -9.02574158 78.92404175 C-0.53671842 78.8839004 7.95227266 78.85348276 16.44136906 78.83387566 C20.80527369 78.82345646 25.16909963 78.80933141 29.53295898 78.78662109 C33.74750475 78.7648261 37.96197501 78.75291736 42.1765728 78.74774551 C43.78125636 78.74406169 45.38593598 78.73686815 46.99058723 78.72603989 C49.24519782 78.71143631 51.49949982 78.70952573 53.75415039 78.71044922 C55.67608971 78.70378738 55.67608971 78.70378738 57.63685608 78.69699097 C62.9305624 79.04936669 66.94468397 79.81018161 71 83.3125 C75.27657435 88.30183674 77.38756374 91.47880329 77.5 98.1875 C77.53867187 99.55648437 77.53867187 99.55648437 77.578125 100.953125 C76.70339765 108.90897856 72.59213621 113.10569749 67 118.375 C63.2143239 122.00515234 59.47825771 125.59904149 56.078125 129.59765625 C50.29194041 136.3288741 43.81083155 142.43017542 37.50195312 148.66503906 C29.90558685 156.09308868 29.90558685 156.09308868 22.75 163.9375 C17.10188059 170.57334473 10.69498609 176.54466179 4.50195312 182.66503906 C-4.09848652 191.1705218 -4.09848652 191.1705218 -12.19775391 200.14941406 C-14.96912208 203.34184887 -17.95100432 206.32274751 -20.9375 209.3125 C-21.54013672 209.92738281 -22.14277344 210.54226563 -22.76367188 211.17578125 C-23.35083984 211.76488281 -23.93800781 212.35398437 -24.54296875 212.9609375 C-25.0639917 213.48606934 -25.58501465 214.01120117 -26.12182617 214.55224609 C-30.47409169 218.25516325 -34.52011584 218.36807086 -40.0546875 218.25 C-43.90402532 217.80369996 -45.95574624 216.59204107 -48.75 213.9375 C-52.16115702 209.04817494 -52.18432258 204.6780863 -51.75 198.9375 C-51.1808975 195.96221023 -50.30963083 193.12911368 -49.375 190.25 C-49.11678467 189.42129395 -48.85856934 188.59258789 -48.5925293 187.73876953 C-45.61126107 178.27607593 -42.4411159 168.86938368 -39.26611328 159.4699707 C-38.85474121 158.25011475 -38.44336914 157.03025879 -38.01953125 155.7734375 C-37.65448486 154.69626465 -37.28943848 153.6190918 -36.91333008 152.50927734 C-35.44728455 148.00807146 -34.09376432 143.47647047 -32.75 138.9375 C-33.63425659 138.94416183 -34.51851318 138.95082367 -35.42956543 138.95768738 C-43.78581404 139.01793911 -52.14198908 139.06354572 -60.49840546 139.09293652 C-64.79395355 139.10855488 -69.0893213 139.12972266 -73.38476562 139.16381836 C-77.5344875 139.19654913 -81.68403651 139.21438179 -85.83387756 139.22213173 C-87.4126304 139.22765072 -88.99137438 139.23842777 -90.5700531 139.25469017 C-105.80635795 139.40532123 -105.80635795 139.40532123 -112.75 135.9375 C-112.75 135.2775 -112.75 134.6175 -112.75 133.9375 C-113.3275 133.89625 -113.905 133.855 -114.5 133.8125 C-117.91998433 132.48250609 -118.95251232 130.03661668 -120.75 126.9375 C-121.81385483 123.74593552 -121.91677982 121.35252524 -121.9375 118 C-121.95167969 116.95972656 -121.96585937 115.91945313 -121.98046875 114.84765625 C-121.75392282 111.98703387 -121.22733619 110.36079849 -119.75 107.9375 C-119.09 107.9375 -118.43 107.9375 -117.75 107.9375 C-117.69473145 107.39254883 -117.63946289 106.84759766 -117.58251953 106.28613281 C-116.37606238 102.88257922 -113.97403981 100.81256705 -111.4296875 98.359375 C-110.89280304 97.82910706 -110.35591858 97.29883911 -109.80276489 96.75250244 C-108.08380332 95.05691349 -106.35504933 93.37176808 -104.625 91.6875 C-102.36857881 89.47782079 -100.11648852 87.26380066 -97.8671875 85.046875 C-97.0447757 84.23748474 -97.0447757 84.23748474 -96.20574951 83.41174316 C-92.85700665 80.09580483 -89.72092976 76.67470383 -86.66845703 73.08300781 C-81.403214 67.19461945 -75.61831143 61.76042901 -70.00195312 56.20996094 C-62.40558685 48.78191132 -62.40558685 48.78191132 -55.25 40.9375 C-49.60188059 34.30165527 -43.19498609 28.33033821 -37.00195312 22.20996094 C-35.29082388 20.5171171 -33.58195778 18.82204974 -31.875 17.125 C-31.33069839 16.58387573 -30.78639679 16.04275146 -30.2256012 15.48522949 C-26.69798391 11.95303243 -23.34132018 8.32581495 -20.15991211 4.47460938 C-14.36173047 -1.84666363 -7.79059144 -2.20733424 0 0 Z " fill="#FDFBF9" transform="translate(223.75,89.0625)"/>
<path d="M0 0 C1.56258985 3.1251797 -0.01738736 5.78896144 -1.0625 8.9375 C-1.39834106 9.9908252 -1.39834106 9.9908252 -1.7409668 11.06542969 C-3.00368421 15.01504699 -4.32098036 18.9430226 -5.671875 22.86328125 C-10.97143445 37.98881783 -10.97143445 37.98881783 -8.4375 53.4375 C-5.91041773 57.75422416 -2.11692961 60.98448294 2.66986084 62.54405212 C5.82008198 63.1604688 8.85334751 63.16603747 12.06347656 63.20532227 C12.76631775 63.21522186 13.46915894 63.22512146 14.19329834 63.23532104 C16.50904 63.26682784 18.82480215 63.29165049 21.140625 63.31640625 C22.74917118 63.33698513 24.35771206 63.35798185 25.96624756 63.37937927 C30.1944957 63.43450348 34.42279186 63.48395521 38.65112305 63.53222656 C42.96797954 63.58251216 47.28476652 63.63816135 51.6015625 63.69335938 C60.06764951 63.80082286 68.53379478 63.90229392 77 64 C73.03443427 69.57796365 68.76639624 74.49898712 63.87890625 79.28125 C63.21592026 79.93903442 62.55293427 80.59681885 61.86985779 81.27453613 C59.77217902 83.35458294 57.66788564 85.42775671 55.5625 87.5 C53.46156771 89.57310056 51.36221072 91.64773631 49.26585388 93.72546387 C47.96862757 95.01065796 46.66874177 96.29317591 45.36561584 97.5723877 C41.62465996 101.27267454 38.1217728 105.10840746 34.68345642 109.0904541 C32.19718954 111.91062851 29.55412689 114.55191209 26.875 117.1875 C26.32440918 117.7343042 25.77381836 118.2811084 25.20654297 118.84448242 C22.8922054 121.14274364 20.5718335 123.43487516 18.25195312 125.72753906 C9.52460774 134.3299233 9.52460774 134.3299233 1.36108398 143.46289062 C-0.53687118 145.60630331 -2.69043509 147.32031643 -5 149 C-4.81824219 148.39559082 -4.63648438 147.79118164 -4.44921875 147.16845703 C-3.12430219 142.75801364 -1.80474444 138.34614388 -0.5 133.9296875 C0 132.24479167 0.5 130.55989583 1 128.875 C1.2475 128.03324219 1.495 127.19148438 1.75 126.32421875 C2.91578412 122.40791273 4.136947 118.58189435 5.66015625 114.7890625 C8.0030922 108.67352465 8.12100219 101.81502358 6.2734375 95.52734375 C4.33757956 91.3172462 2.01860925 88.42985676 -2 86 C-6.88411474 84.35474779 -11.17035919 83.73614589 -16.31225586 83.68115234 C-17.00578156 83.67110672 -17.69930725 83.6610611 -18.41384888 83.65071106 C-20.68083958 83.6200945 -22.94771341 83.60290471 -25.21484375 83.5859375 C-26.79668671 83.56720846 -28.37851987 83.54763377 -29.96034241 83.5272522 C-34.10468745 83.47610823 -38.24906483 83.43638811 -42.39355469 83.39910889 C-46.6302885 83.3589575 -50.86688989 83.30791617 -55.10351562 83.2578125 C-63.40225301 83.16126344 -71.70105639 83.07679204 -80 83 C-79.05378263 81.88632765 -78.10616123 80.77384811 -77.15795898 79.66186523 C-76.63040512 79.04222397 -76.10285126 78.4225827 -75.55931091 77.78416443 C-72.76681155 74.58898508 -69.69786749 71.6813376 -66.66015625 68.72265625 C-64.67233305 66.68812942 -62.83488957 64.65655142 -60.99609375 62.49609375 C-55.13176445 55.72968211 -48.61646668 49.56230701 -42.25195312 43.27246094 C-36.61175854 37.6925384 -31.02767469 32.15488397 -25.88232422 26.109375 C-21.34440456 21.02407982 -16.39950725 16.29920142 -11.5625 11.5 C-10.4379167 10.38044368 -9.31356595 9.26065371 -8.18945312 8.140625 C-5.46230656 5.42438466 -2.73204093 2.71131708 0 0 Z " fill="#BC5506" transform="translate(203,124)"/>
<path d="M0 0 C0.66 0.33 1.32 0.66 2 1 C-4.27 7.27 -10.54 13.54 -17 20 C-17 15.82063392 -15.24808305 14.71589277 -12.4375 11.6875 C-11.98584473 11.19983154 -11.53418945 10.71216309 -11.06884766 10.2097168 C-7.59122576 6.5046503 -3.95528271 3.18142305 0 0 Z " fill="#CC7F03" transform="translate(44,26)"/>
</svg>
